<?xml version="1.0" standalone="no"?>
<!DOCTYPE svg PUBLIC "-//W3C//DTD SVG 20010904//EN"
 "http://www.w3.org/TR/2001/REC-SVG-20010904/DTD/svg10.dtd">
<svg version="1.0" xmlns="http://www.w3.org/2000/svg"
 width="1096.000000pt" height="1096.000000pt" viewBox="0 0 1096.000000 1096.000000"
 preserveAspectRatio="xMidYMid meet">
<metadata>
Created by potrace 1.11, written by Peter Selinger 2001-2013
</metadata>
<g transform="translate(0.000000,1096.000000) scale(0.100000,-0.100000)"
fill="#000000" stroke="none">
<path d="M5289 10376 c-2 -2 -38 -6 -79 -10 -41 -3 -85 -8 -96 -10 -12 -3 -39
-7 -60 -10 -21 -4 -68 -14 -104 -22 -36 -9 -72 -17 -80 -19 -8 -1 -28 -8 -45
-15 -16 -7 -39 -13 -50 -15 -11 -1 -21 -4 -22 -5 -2 -1 -6 -3 -10 -5 -5 -1
-15 -4 -23 -8 -8 -3 -36 -13 -62 -23 -27 -9 -48 -21 -48 -26 0 -5 -4 -6 -10
-3 -5 3 -20 0 -32 -7 -13 -7 -25 -13 -28 -13 -23 -4 -288 -154 -317 -180 -6
-5 -28 -21 -48 -35 -75 -51 -173 -137 -270 -235 -109 -110 -120 -122 -185
-210 -25 -33 -50 -66 -57 -73 -6 -6 -15 -21 -18 -32 -3 -11 -10 -20 -15 -20
-4 0 -10 -8 -14 -17 -3 -10 -15 -31 -26 -48 -11 -16 -23 -37 -27 -45 -3 -8
-16 -28 -27 -45 -12 -16 -20 -31 -19 -32 1 -1 -14 -37 -35 -80 -20 -43 -37
-80 -37 -83 -1 -3 -7 -18 -13 -33 -38 -91 -98 -298 -117 -407 -18 -95 -29
-215 -30 -302 0 -42 -3 -74 -7 -72 -4 2 -3 -9 2 -26 5 -18 5 -32 -1 -36 -5 -3
-7 -10 -4 -15 4 -5 8 -39 10 -76 5 -86 15 -173 20 -193 3 -8 7 -29 9 -45 11
-72 51 -235 71 -288 8 -20 15 -40 16 -45 1 -4 5 -17 10 -30 5 -13 9 -26 9 -29
0 -3 6 -19 14 -36 30 -66 53 -122 53 -131 1 -5 5 -12 10 -15 5 -3 20 -30 33
-58 14 -29 28 -53 32 -53 5 0 8 -6 8 -13 0 -13 120 -198 155 -239 11 -13 35
-42 52 -64 l33 -41 -72 -119 c-39 -66 -79 -132 -88 -149 -68 -116 -181 -302
-190 -312 -5 -7 -10 -16 -10 -21 0 -4 -10 -19 -22 -32 -13 -14 -22 -27 -21
-30 1 -3 -25 -50 -59 -105 -33 -55 -65 -109 -71 -119 -7 -11 -28 -45 -47 -75
-19 -31 -35 -58 -35 -61 0 -3 -10 -18 -21 -35 -12 -16 -23 -35 -25 -40 -2 -6
-55 -95 -117 -198 -99 -163 -126 -223 -91 -202 5 4 9 1 9 -6 0 -7 3 -10 6 -7
5 6 103 -25 169 -52 69 -29 103 -44 149 -66 28 -13 56 -24 63 -24 7 0 13 -3
13 -8 0 -4 25 -18 55 -32 30 -14 55 -28 55 -32 0 -5 6 -8 13 -8 6 0 52 -27
101 -60 49 -33 93 -60 98 -60 4 0 8 -4 8 -10 0 -5 6 -10 14 -10 8 0 16 -3 18
-7 2 -5 24 -24 49 -43 77 -59 130 -103 175 -146 23 -23 47 -38 52 -35 7 5 146
233 216 354 10 17 22 34 27 35 5 2 9 8 9 14 0 5 57 105 128 221 70 117 132
219 137 229 6 9 26 44 45 77 19 34 38 61 42 61 5 0 8 7 8 16 0 8 6 22 13 29
21 25 32 40 34 52 1 6 15 31 30 55 15 23 34 52 41 63 7 11 15 28 18 38 4 9 10
17 14 17 4 0 10 8 14 18 3 9 20 40 36 67 17 28 36 60 42 72 11 23 37 24 98 3
45 -15 170 -35 295 -48 114 -11 490 -5 490 8 0 1 14 3 30 5 17 1 30 3 30 5 0
1 14 3 30 5 17 1 30 3 30 5 0 1 12 4 26 5 60 8 254 63 316 91 17 8 33 14 36
14 3 0 16 4 29 9 13 5 28 10 33 11 6 1 23 12 39 23 18 13 26 15 21 6 -7 -11
-5 -11 11 2 10 8 45 27 77 42 31 15 57 33 57 39 0 6 3 9 6 5 7 -7 60 18 80 37
10 9 57 40 124 81 18 11 90 69 154 125 65 56 228 220 219 220 -4 0 -3 4 2 8
38 27 184 229 234 322 13 25 31 53 39 63 8 9 13 17 9 17 -3 0 12 33 32 73 21
39 50 108 66 152 16 44 33 86 38 93 5 6 7 12 4 12 -3 0 2 21 10 48 20 64 33
112 38 144 2 15 9 36 14 46 6 11 8 21 6 24 -3 3 -1 29 4 59 21 118 23 150 26
324 1 110 -3 221 -11 285 -16 118 -52 297 -65 322 -5 9 -9 28 -9 42 0 14 -5
26 -10 26 -6 0 -9 3 -8 8 5 17 -70 214 -111 292 -76 144 -187 321 -231 368
-11 12 -19 22 -16 22 9 0 -78 95 -176 193 -180 178 -341 293 -575 408 -78 39
-147 72 -155 73 -7 2 -21 6 -30 9 -10 4 -26 10 -35 14 -10 3 -27 8 -37 10 -11
2 -25 8 -33 14 -7 6 -13 9 -13 5 0 -3 -12 -1 -27 5 -16 6 -37 12 -48 15 -18 3
-45 9 -130 30 -16 4 -37 8 -45 10 -8 1 -37 5 -65 9 -27 4 -63 9 -80 11 -37 6
-391 14 -396 10z"/>
<path d="M7297 6403 c-31 -39 -205 -210 -262 -258 -26 -22 -53 -46 -60 -52 -8
-7 -18 -13 -23 -13 -6 0 -12 -7 -16 -15 -3 -8 -10 -15 -16 -15 -6 0 -18 -7
-26 -15 -23 -23 -180 -125 -193 -125 -6 0 -11 -4 -11 -9 0 -6 -30 -25 -67 -43
-38 -18 -74 -38 -81 -45 -7 -7 -22 -13 -33 -13 -10 0 -19 -4 -19 -10 0 -5 -4
-10 -9 -10 -9 0 -141 -58 -149 -66 -5 -4 80 -128 90 -132 4 -2 8 -8 8 -13 0
-9 38 -68 51 -79 6 -5 108 -151 124 -178 6 -9 15 -22 22 -29 6 -7 21 -29 34
-50 13 -21 26 -40 29 -43 4 -3 37 -50 75 -105 38 -55 72 -102 75 -105 3 -3 10
-12 15 -21 6 -10 25 -38 43 -63 17 -25 46 -67 64 -93 18 -27 36 -52 41 -58 5
-5 48 -66 95 -135 48 -69 98 -140 112 -158 14 -19 25 -37 24 -40 -1 -4 5 -11
11 -17 7 -5 24 -28 38 -49 l26 -40 -58 -60 c-96 -100 -144 -156 -135 -156 5 0
-2 -7 -14 -16 -12 -8 -22 -22 -22 -30 0 -8 -4 -12 -10 -9 -5 3 -10 1 -10 -5 0
-10 -37 -68 -51 -80 -32 -27 -206 -359 -201 -382 1 -5 -2 -8 -8 -8 -6 0 -9 -3
-8 -7 3 -10 -22 -85 -32 -98 -5 -5 -9 -13 -9 -18 0 -4 -8 -33 -18 -65 -9 -31
-17 -59 -18 -62 -11 -48 -29 -129 -32 -140 -2 -8 -5 -26 -8 -40 -2 -14 -6 -38
-9 -55 -12 -72 -17 -117 -21 -203 -2 -51 -7 -97 -10 -102 -3 -6 -3 -10 2 -10
4 0 8 -44 9 -98 1 -84 9 -207 14 -207 1 0 3 -16 5 -35 8 -82 44 -240 75 -325
4 -11 13 -38 19 -60 7 -22 22 -60 33 -85 11 -25 21 -49 22 -55 2 -13 98 -208
105 -215 3 -3 17 -26 31 -52 13 -27 28 -48 32 -48 5 0 8 -4 8 -10 0 -9 65
-106 80 -120 3 -3 18 -23 35 -45 57 -78 210 -236 295 -307 112 -92 135 -110
162 -124 15 -8 28 -19 28 -25 0 -6 5 -7 10 -4 6 3 10 1 10 -4 0 -6 4 -11 9
-11 6 0 29 -13 53 -29 24 -16 90 -52 148 -81 58 -29 114 -57 124 -62 20 -11
198 -76 226 -83 8 -2 51 -13 95 -25 44 -11 89 -22 100 -24 11 -2 36 -6 55 -10
19 -3 49 -8 65 -11 176 -31 500 -26 700 12 17 3 39 7 50 8 11 2 22 4 25 5 3 1
10 3 15 4 19 4 70 18 85 23 8 4 20 7 25 7 6 1 30 8 55 16 25 7 48 13 53 12 4
-1 7 3 7 10 0 6 3 9 6 5 6 -5 114 31 124 43 3 3 12 6 20 8 18 4 158 73 215
105 115 66 230 146 330 231 58 49 210 200 250 247 73 90 150 198 198 279 31
52 61 100 67 107 5 7 10 15 10 18 0 3 14 34 30 68 17 35 30 69 30 75 0 7 5 12
12 12 6 0 8 3 5 6 -3 4 -2 16 4 26 14 26 67 179 73 209 2 13 9 35 14 49 5 14
10 27 10 30 0 3 3 16 6 30 3 14 8 36 10 50 3 14 7 34 10 46 2 12 7 43 10 70 4
27 10 81 15 119 9 71 7 419 -3 465 -3 14 -12 68 -21 121 -9 52 -23 120 -31
150 -8 29 -16 59 -18 64 -1 6 -11 37 -21 70 -10 33 -19 62 -20 65 -1 3 -7 18
-13 33 -7 16 -12 30 -12 33 0 18 -119 256 -133 265 -5 3 -7 9 -5 12 10 17
-197 301 -294 405 -44 47 -152 146 -208 192 -23 19 -48 40 -54 45 -26 24 -195
135 -205 135 -6 0 -11 5 -11 10 0 6 -5 10 -10 10 -6 0 -29 12 -52 26 -23 14
-47 27 -55 28 -7 1 -19 8 -25 14 -7 7 -20 12 -30 12 -10 0 -18 3 -18 8 0 4
-35 21 -77 37 -43 16 -80 31 -83 34 -3 4 -14 7 -25 9 -11 2 -27 6 -35 9 -8 4
-18 7 -22 8 -5 2 -10 4 -13 5 -3 1 -8 3 -12 4 -5 2 -28 8 -53 15 -59 17 -73
21 -150 36 -143 29 -180 34 -320 40 -52 2 -95 5 -95 6 0 0 -10 2 -22 3 -13 2
-23 0 -23 -3 0 -3 -35 -6 -78 -7 -69 0 -123 -4 -246 -19 -21 -2 -36 -2 -33 2
3 3 1 11 -6 18 -28 29 -87 111 -87 120 0 4 -6 13 -12 20 -23 26 -33 40 -57 78
-13 21 -28 43 -35 50 -6 6 -43 58 -81 115 -38 56 -76 110 -84 120 -9 10 -38
51 -66 92 -27 41 -52 77 -55 80 -3 3 -28 39 -55 80 -28 41 -53 77 -56 80 -3 3
-36 50 -74 105 -38 55 -73 102 -77 103 -4 2 -8 9 -8 15 0 7 -10 24 -22 38 -13
14 -27 32 -33 41 -5 9 -24 36 -41 59 -17 24 -57 82 -89 129 -32 47 -63 87 -67
88 -4 2 -8 8 -8 13 0 13 -72 109 -82 109 -5 0 -18 -12 -31 -27z"/>
<path d="M2136 4943 c-1 -1 -49 -5 -106 -8 -58 -3 -118 -8 -135 -10 -16 -3
-46 -6 -65 -9 -29 -4 -142 -26 -210 -41 -41 -10 -182 -56 -240 -80 -36 -15
-69 -28 -75 -29 -22 -5 -110 -52 -117 -61 -4 -5 -8 -7 -8 -3 0 4 -27 -8 -59
-27 -33 -19 -64 -35 -69 -35 -6 0 -12 -3 -14 -7 -1 -5 -39 -32 -83 -60 -44
-29 -92 -63 -106 -75 -15 -13 -44 -36 -65 -52 -116 -89 -397 -405 -437 -493
-5 -13 -14 -23 -19 -23 -4 0 -8 -4 -8 -9 0 -5 -20 -44 -45 -85 -25 -42 -45
-78 -45 -80 0 -4 -59 -135 -81 -181 -6 -12 -12 -30 -14 -40 -2 -11 -4 -21 -5
-22 -2 -2 -3 -6 -4 -10 -1 -5 -8 -19 -16 -33 -7 -14 -13 -27 -12 -30 1 -3 -5
-27 -12 -55 -8 -27 -17 -61 -19 -75 -3 -14 -10 -43 -15 -65 -11 -40 -17 -69
-27 -135 -2 -19 -8 -53 -11 -75 -10 -67 -12 -406 -3 -475 5 -36 12 -83 14
-105 3 -22 15 -83 26 -135 12 -52 22 -100 23 -107 1 -7 5 -16 9 -19 4 -4 7
-18 7 -30 0 -13 5 -26 11 -29 6 -4 8 -13 5 -20 -2 -7 -1 -16 4 -21 4 -5 13
-27 20 -49 12 -39 38 -101 66 -159 8 -16 14 -35 14 -43 0 -7 3 -13 8 -13 4 0
14 -15 21 -33 23 -51 120 -214 136 -227 8 -7 15 -18 15 -25 0 -8 3 -15 8 -17
4 -2 27 -30 51 -63 25 -33 55 -70 68 -82 13 -13 22 -23 19 -23 -8 0 182 -187
230 -228 21 -18 61 -49 89 -70 27 -20 55 -41 61 -47 6 -5 27 -19 47 -30 20
-11 37 -23 37 -27 0 -5 7 -8 15 -8 8 0 15 -3 15 -7 0 -5 10 -13 23 -19 12 -6
56 -28 97 -50 109 -58 276 -129 350 -149 304 -84 401 -99 670 -98 166 0 260 5
260 13 0 3 10 5 23 6 45 2 123 13 156 23 19 6 38 8 42 5 5 -3 9 0 9 5 0 6 3
10 8 9 40 -10 339 99 491 180 97 51 103 55 138 80 17 12 34 22 37 22 6 0 145
98 156 110 3 3 34 30 70 60 116 98 235 223 318 335 28 39 56 75 62 82 5 7 10
17 10 23 0 5 4 10 9 10 5 0 13 9 16 20 3 11 12 26 18 33 21 22 157 282 157
298 0 4 8 24 17 45 9 22 18 44 19 50 1 7 8 25 16 40 l13 29 1022 0 c562 1
1024 3 1027 5 2 3 -2 32 -10 65 -8 33 -16 71 -19 85 -21 123 -26 156 -31 207
-3 32 -7 78 -10 103 -5 51 -5 336 0 390 8 87 18 166 21 180 2 8 7 35 10 60 4
25 10 63 15 85 5 22 10 45 10 50 0 7 -321 11 -1004 10 -552 0 -1004 2 -1004 5
2 11 -15 66 -25 78 -5 6 -7 12 -4 12 7 0 -44 144 -67 188 -9 17 -16 38 -16 47
0 8 -5 15 -11 15 -5 0 -7 5 -4 10 3 6 1 10 -4 10 -6 0 -11 9 -11 19 0 11 -4
22 -9 25 -5 3 -21 32 -37 63 -25 54 -159 258 -187 288 -7 7 -21 25 -32 40 -11
15 -45 54 -75 86 -30 32 -62 66 -72 76 -31 34 -103 99 -158 144 -30 24 -60 48
-67 54 -28 24 -125 90 -129 87 -3 -1 -14 7 -26 18 -12 11 -28 20 -35 20 -7 0
-13 3 -13 8 0 4 -10 12 -23 18 -96 49 -128 64 -134 65 -5 1 -19 9 -33 18 -54
38 -370 143 -470 156 -14 2 -25 4 -25 5 0 3 -38 10 -75 15 -19 2 -53 7 -75 10
-22 3 -78 7 -125 10 -47 2 -85 4 -85 5 0 2 -76 5 -79 3z"/>
</g>
</svg>
